<svg width="69" height="69" viewBox="0 0 69 69" fill="none" xmlns="http://www.w3.org/2000/svg">
<path fill-rule="evenodd" clip-rule="evenodd" d="M36.9994 23.125C44.6623 23.125 50.8743 29.3371 50.8743 37C50.8743 44.6629 44.6623 50.875 36.9994 50.875C29.3364 50.875 23.1244 44.6629 23.1244 37C23.1244 29.3371 29.3364 23.125 36.9994 23.125ZM46.2494 37C46.2494 31.8914 42.108 27.75 36.9994 27.75C31.8908 27.75 27.7494 31.8914 27.7494 37C27.7494 42.1086 31.8908 46.25 36.9994 46.25C42.108 46.25 46.2494 42.1086 46.2494 37Z" fill="white"/>
<path fill-rule="evenodd" clip-rule="evenodd" d="M68.5887 39.5785L68.5675 39.6091C68.4366 39.7961 68.1124 40.2597 67.9195 40.5237C67.5102 41.0838 66.9187 41.8677 66.1629 42.8009C64.6575 44.6603 62.4722 47.1491 59.7545 49.6522C54.4843 54.5061 46.4438 60.125 36.9992 60.125C27.5546 60.125 19.5141 54.5061 14.2438 49.6522C11.526 47.1491 9.34083 44.6603 7.8354 42.8009C7.07981 41.8677 6.48809 41.0838 6.07877 40.5237C5.88452 40.2579 5.55929 39.7926 5.43053 39.6084L5.41129 39.5809C4.36396 38.0214 4.36238 35.981 5.40968 34.4215L5.43086 34.3912C5.56101 34.205 5.88545 33.7409 6.07877 33.4763C6.48809 32.9162 7.07981 32.1323 7.8354 31.1991C9.34083 29.3397 11.526 26.851 14.2438 24.348C19.5141 19.4941 27.5546 13.875 36.9992 13.875C46.4438 13.875 54.4843 19.4941 59.7545 24.348C62.4722 26.851 64.6575 29.3397 66.1629 31.1991C66.9187 32.1323 67.5102 32.9162 67.9195 33.4763C68.1128 33.7407 68.4371 34.2045 68.5675 34.3909L68.5887 34.4215C69.6358 35.981 69.6358 38.019 68.5887 39.5785ZM36.9992 18.5C21.6733 18.5 9.24917 37 9.24917 37C9.24917 37 21.6733 55.5 36.9992 55.5C52.3249 55.5 64.7491 37 64.7491 37C64.7491 37 52.3249 18.5 36.9992 18.5Z" fill="white"/>
</svg>
