<svg width="64" height="69" viewBox="0 0 64 69" fill="none" xmlns="http://www.w3.org/2000/svg">
<g opacity="0.85">
<path d="M6.91138 10.4197C6.91138 11.3474 7.66351 12.0997 8.59138 12.0997H54.9821C55.9099 12.0997 56.6621 11.3474 56.6621 10.4197C56.6621 9.49205 55.9099 8.73975 54.9821 8.73975H8.59138C7.66351 8.73975 6.91138 9.49205 6.91138 10.4197Z" fill="white"/>
<path d="M47.3127 3.36C48.2405 3.36 48.9927 2.6077 48.9927 1.68C48.9927 0.752304 48.2405 0 47.3127 0H16.2606C15.3327 0 14.5806 0.752304 14.5806 1.68C14.5806 2.6077 15.3327 3.36 16.2606 3.36H47.3127Z" fill="white"/>
<path d="M25.6335 44.2016C30.8667 44.2016 35.1242 39.944 35.1242 34.7108C35.1242 29.4777 30.8667 25.2201 25.6335 25.2201C20.4003 25.2201 16.1427 29.4777 16.1427 34.7108C16.1427 39.9441 20.4003 44.2016 25.6335 44.2016ZM25.6335 28.5801C29.014 28.5801 31.7642 31.3303 31.7642 34.7108C31.7642 38.0912 29.014 40.8416 25.6335 40.8416C22.253 40.8416 19.5027 38.0912 19.5027 34.7108C19.5027 31.3303 22.253 28.5801 25.6335 28.5801Z" fill="white"/>
<path d="M0 24.7345V61.2817C0 65.1936 3.18259 68.3762 7.09447 68.3762H56.6318C60.5437 68.3762 63.7263 65.1938 63.7263 61.2817V24.7345C63.7263 20.8226 60.5437 17.64 56.6318 17.64H7.09431C3.18259 17.64 0 20.8224 0 24.7345ZM56.6316 65.016H7.09431C5.03513 65.016 3.35983 63.3407 3.35983 61.2815V58.4014L14.1421 51.304C15.3997 50.4763 17.0211 50.4825 18.2724 51.32L25.1639 55.9319C28.3327 58.0524 32.5797 57.304 34.833 54.2281L44.0515 41.6422C44.7636 40.6698 45.8595 40.1144 47.0625 40.1144C47.0739 40.1144 47.0855 40.1144 47.097 40.1146C48.3134 40.1251 49.4137 40.7014 50.1151 41.6954L60.3659 56.2194V61.2814C60.3661 63.3407 58.6908 65.016 56.6316 65.016ZM7.09431 21H56.6316C58.6908 21 60.3661 22.6753 60.3661 24.7345V50.3928L52.8604 39.7582C51.5276 37.8699 49.4377 36.7752 47.1265 36.7549C47.1047 36.7547 47.083 36.7547 47.0612 36.7547C44.7757 36.7547 42.6935 37.8099 41.3408 39.6569L32.1223 52.2428C30.9364 53.8622 28.7008 54.2561 27.0325 53.1398L20.141 48.5278C17.7638 46.9369 14.6839 46.9251 12.2946 48.4978L3.35966 54.3791V24.7345C3.36 22.6753 5.0353 21 7.09431 21Z" fill="white"/>
</g>
</svg>
