<svg width="136" height="136" viewBox="0 0 136 136" fill="none" xmlns="http://www.w3.org/2000/svg">
<path opacity="0.85" d="M128.016 0H7.05599C3.18528 0 0 3.18527 0 7.05598V128.016C0 131.886 3.18528 135.072 7.05599 135.072H128.016C131.887 135.072 135.072 131.886 135.072 128.016V7.05598C135.072 3.18527 131.887 0 128.016 0ZM7.05599 6.04798H128.016C128.58 6.04798 129.024 6.4915 129.024 7.05598V92.4938L99.55 63.02C95.3567 58.8267 88.0588 58.8267 83.8655 63.02L54.6739 92.2116L41.1264 83.7444C37.5379 81.5268 32.9414 81.5268 29.3529 83.7444L6.00768 98.3402V7.05598C6.00768 6.4915 6.45119 6.04798 7.01567 6.04798H7.05599ZM128.016 129.024H7.05599C6.49151 129.024 6.048 128.58 6.048 128.016V105.517L32.6189 88.9053C34.2317 87.8973 36.3283 87.8973 37.9814 88.9053L65.9635 106.404C66.4473 106.727 67.0118 106.848 67.5763 106.848C68.5843 106.848 69.5519 106.364 70.1567 105.437C71.0438 104.025 70.6003 102.171 69.1891 101.284L59.9961 95.5581L88.2201 67.3342C90.1151 65.4392 93.4214 65.4392 95.3567 67.3342L129.105 101.082V128.056C129.105 128.62 128.661 129.064 128.097 129.064L128.016 129.024ZM39.312 62.4958C49.8758 62.4958 58.464 53.9077 58.464 43.3439C58.464 32.7801 49.8758 24.1919 39.312 24.1919C28.7481 24.1919 20.16 32.7801 20.16 43.3439C20.16 53.9077 28.7481 62.4958 39.312 62.4958ZM39.312 30.2399C46.5292 30.2399 52.416 36.1266 52.416 43.3439C52.416 50.5611 46.5292 56.4478 39.312 56.4478C32.0947 56.4478 26.208 50.5611 26.208 43.3439C26.208 36.1266 32.0947 30.2399 39.312 30.2399Z" fill="white"/>
</svg>
