<svg width="69" height="69" viewBox="0 0 69 69" fill="none" xmlns="http://www.w3.org/2000/svg">
<path opacity="0.85" d="M34.19 0C15.3375 0 0 15.3375 0 34.19C0 53.0425 15.3375 68.38 34.19 68.38C53.0425 68.38 68.38 53.0425 68.38 34.19C68.38 15.3375 53.0425 0 34.19 0ZM34.19 63.4687C18.0455 63.4687 4.91127 50.3345 4.91127 34.19C4.91127 18.0455 18.0455 4.91127 34.19 4.91127C50.3345 4.91127 63.4687 18.0455 63.4687 34.19C63.4687 50.3345 50.3345 63.4687 34.19 63.4687ZM34.19 8.18595C32.8337 8.18595 31.7344 9.28532 31.7344 10.6416V33.1443L19.5174 44.8875C18.5397 45.8267 18.5087 47.3817 19.4486 48.3594C19.9307 48.8611 20.5744 49.1135 21.219 49.1135C21.8317 49.1135 22.4445 48.886 22.9205 48.4282L35.8916 35.9603C36.3736 35.4972 36.6456 34.8579 36.6456 34.19V10.6416C36.6456 9.28532 35.5463 8.18595 34.19 8.18595Z" fill="white"/>
</svg>
